<svg id="Ebene_1" data-name="Ebene 1" xmlns="http://www.w3.org/2000/svg" viewBox="0 0 100 100"><defs><style>.cls-1{fill:#fff;}</style></defs><path class="cls-1" d="M50,.07c14.19,0,28.39,0,42.58,0a7.32,7.32,0,0,1,7.35,6A8.32,8.32,0,0,1,100,7.17V92.86A7.11,7.11,0,0,1,93.21,100H7.49A7,7,0,0,1,.31,94.83,7.91,7.91,0,0,1,0,92.72Q0,50,0,7.3A7.08,7.08,0,0,1,7.12.08c3.43,0,6.86,0,10.29,0Zm3.35,43.86c0-2,0-3.7,0-5.41,0-.83-.2-1.14-1.09-1.13q-6.14.07-12.26,0c-1,0-1.2.3-1.2,1.22q0,22.78,0,45.56c0,.93.24,1.25,1.21,1.24q6.36-.06,12.72,0c1,0,1.21-.28,1.21-1.23q-.06-11.46,0-22.92a27.7,27.7,0,0,1,.39-4.73c.57-3.23,2-5.85,5.51-6.71a12.68,12.68,0,0,1,3.32-.3c3.45,0,5.71,1.71,6.48,5.06a28.06,28.06,0,0,1,.65,6c.07,7.86,0,15.72,0,23.57,0,.92.23,1.27,1.21,1.26,4.24,0,8.48,0,12.72,0,.91,0,1.16-.29,1.16-1.18q0-12.67,0-25.35a44.38,44.38,0,0,0-1-10.29C83.31,44,81.18,40,76.63,38a20.78,20.78,0,0,0-14-1.17A15.38,15.38,0,0,0,53.33,43.93ZM29.74,61.33c0-7.61,0-15.22,0-22.82,0-.85-.23-1.13-1.11-1.12q-6.45.06-12.9,0c-.85,0-1.12.22-1.12,1.1q0,22.9,0,45.82c0,.91.33,1.1,1.14,1.09,4.24,0,8.48,0,12.72,0,1.25,0,1.25,0,1.25-1.25ZM22.21,31a8.68,8.68,0,1,0-8.69-8.61A8.62,8.62,0,0,0,22.21,31Z"/></svg>