<svg id="Ebene_1" data-name="Ebene 1" xmlns="http://www.w3.org/2000/svg" viewBox="0 0 100 100"><defs><style>.cls-1{fill:#fff;}</style></defs><path class="cls-1" d="M89.76,29.6c.06.88.06,1.76.06,2.65,0,27.11-20.64,58.38-58.37,58.38v0A58,58,0,0,1,0,81.41a41.92,41.92,0,0,0,4.88.3,41.15,41.15,0,0,0,25.48-8.8A20.54,20.54,0,0,1,11.2,58.66a20.55,20.55,0,0,0,9.26-.35A20.53,20.53,0,0,1,4,38.2v-.26a20.28,20.28,0,0,0,9.31,2.56A20.52,20.52,0,0,1,7,13.12,58.28,58.28,0,0,0,49.24,34.55a20.54,20.54,0,0,1,35-18.71,41.29,41.29,0,0,0,13-5,20.67,20.67,0,0,1-9,11.35A40.91,40.91,0,0,0,100,19,41.53,41.53,0,0,1,89.76,29.6Z"/></svg>